<svg width="287" height="252" viewBox="0 0 287 252" fill="none" xmlns="http://www.w3.org/2000/svg">
<g clip-path="url(#clip0_67_30306)">
<path d="M4.97002 215.25C8.98002 217.42 13.97 216.4 16.83 212.85L98.04 111.64C106.13 101.56 120.71 99.6 131.16 107.2L153.41 123.36C157.28 126.17 162.42 126.5 166.62 124.22C172.04 121.28 174.47 114.8 172.33 109.02L136.23 11.54C132.19 0.63 117.26 -0.6 111.48 9.5L1.25002 202.24C-1.38998 206.85 0.290021 212.73 4.97002 215.25Z" fill="#0F62FE"/>
<path d="M158.92 1.43C155.05 3.84 153.45 8.67 155.12 12.92L202.68 133.65C207.42 145.68 201.88 159.3 190.09 164.61L165.02 175.91C160.66 177.87 157.82 182.17 157.72 186.95C157.59 193.11 162 198.44 168.08 199.45L270.62 216.5C282.09 218.41 290.58 206.06 284.68 196.03L172.06 4.66C169.37 0.0800009 163.43 -1.38 158.92 1.43Z" fill="#0F62FE"/>
<path d="M267.92 241.3C267.79 236.74 264.43 232.92 259.92 232.22L131.69 212.33C118.92 210.35 109.95 198.69 111.32 185.84L114.22 158.49C114.72 153.74 112.45 149.12 108.38 146.61C103.13 143.38 96.3 144.51 92.36 149.25L25.88 229.16C18.44 238.1 24.82 251.66 36.45 251.63L258.49 251C263.81 251 268.07 246.61 267.92 241.3Z" fill="#0F62FE"/>
</g>
<defs>
<clipPath id="clip0_67_30306">
<rect width="286.61" height="251.64" fill="white"/>
</clipPath>
</defs>
</svg>
